<svg width="646" height="70" viewBox="0 0 646 70" fill="none" xmlns="http://www.w3.org/2000/svg">
<path d="M77.5506 27.669L76.813 29.8343H49.4705L53.1756 19.3322C53.374 18.8147 53.4785 18.2663 53.4844 17.7125C53.4844 14.8597 50.8084 13.3196 45.4566 13.0923C43.9886 13.2281 42.5671 13.6758 41.2883 14.4051C39.6704 15.4774 38.2897 16.8666 37.2308 18.4877C36.1719 20.1089 35.4572 21.9278 35.1302 23.8331L25.8845 50.2417C25.6998 50.7917 25.6014 51.3668 25.5929 51.9466C25.5929 54.7653 28.2688 56.2884 33.6207 56.5157C35.0798 56.3916 36.4895 55.9304 37.7375 55.1688C39.3491 54.1015 40.7259 52.7201 41.7844 51.1083C42.8429 49.4965 43.5612 47.6878 43.8956 45.792L45.954 39.9101H73.3995L71.6841 44.7861C68.1848 54.9472 60.9175 62.1247 49.8822 66.3187C45.7504 67.8552 41.4389 68.8635 37.0514 69.3193C35.2283 69.5125 33.3921 69.5524 31.5623 69.4387C26.6916 69.2319 21.8591 68.4885 17.1534 67.2223C5.71781 63.9831 0 58.1239 0 49.645C0.0497578 47.0038 0.536554 44.3888 1.44088 41.9048L7.30736 24.856C10.8067 14.6267 18.0683 7.4264 29.0922 3.25512C33.5551 1.60081 38.2236 0.556968 42.9693 0.152234C44.1116 0.0755574 45.2578 0.0755574 46.4 0.152234C51.6135 0.350252 56.7899 1.11054 61.8381 2.41973C73.2737 5.6931 78.9915 11.5522 78.9915 19.9971C78.9402 22.6159 78.4533 25.2082 77.5506 27.669Z" fill="#002237"/>
<path d="M119.697 3.03516L97.1919 68.0253H74.8925L93.9156 12.2756L79.8498 3.03516H119.697Z" fill="#002237"/>
<path d="M175.874 36.7067C175.874 43.3899 172.913 49.9309 166.989 56.3299C163.52 60.1552 159.253 63.1831 154.487 65.2029C149.72 67.2227 144.568 68.1859 139.389 68.0254C133.331 68.1778 127.313 67.0142 121.755 64.6157C114.436 61.2059 110.777 55.665 110.777 47.993C110.777 41.7532 113.876 35.7918 120.074 30.1088C127.542 23.2893 137.148 19.8795 148.892 19.8795C166.869 19.8113 175.863 25.4204 175.874 36.7067ZM153.163 36.3998C153.283 32.8537 151.088 30.9613 146.576 30.7567C145.057 30.8314 143.573 31.2451 142.236 31.9671C140.588 32.9301 139.165 34.2309 138.062 35.783C136.959 37.3352 136.201 39.103 135.838 40.9689C135.221 43.0148 134.466 46.0836 133.54 50.09C133.248 54.4886 135.358 56.7902 139.818 56.9948C141.157 57.0147 142.489 56.7894 143.746 56.3299C145.095 55.8947 146.319 55.1443 147.316 54.1416C148.313 53.139 149.053 51.9133 149.475 50.5674C151.9 43.4978 153.129 38.7753 153.163 36.3998Z" fill="#002237"/>
<path d="M244.3 36.7052C244.281 38.4304 244.057 40.1473 243.631 41.8198H220.508C221.047 40.0748 221.415 38.282 221.606 36.4665C221.726 32.9203 219.53 31.0279 215.019 30.8233C213.494 30.9006 212.006 31.3141 210.662 32.0338C209.017 33.0053 207.597 34.3108 206.495 35.8648C205.392 37.4189 204.632 39.1866 204.263 41.0526C203.657 43.0985 202.891 46.1502 201.965 50.2078C201.69 54.6064 203.789 56.8796 208.26 57.0274C209.575 57.04 210.882 56.8207 212.12 56.3795C213.453 55.9016 214.661 55.1306 215.653 54.1239C216.645 53.1173 217.396 51.901 217.849 50.5659C218.123 49.8157 218.432 48.861 218.758 47.5653H241.401C238.719 53.1723 234.617 57.9899 229.496 61.5453C223.113 65.9138 215.511 68.1799 207.763 68.0239C201.716 68.1881 195.704 67.0663 190.129 64.7334C182.81 61.3237 179.145 55.7714 179.134 48.0767C179.134 41.7914 182.256 35.7845 188.499 30.0561C195.944 23.2366 205.544 19.8268 217.3 19.8268C235.311 19.7927 244.311 25.4188 244.3 36.7052Z" fill="#002237"/>
<path d="M315.88 22.0607L288.744 45.554L302.827 68.0244H278.812L268.365 51.1119L263.219 68.0244H241.486L260.44 11.7632L246.563 3.05127H284.833L272.534 38.8538L290.047 22.1289L315.88 22.0607Z" fill="#002237"/>
<path d="M390.189 22.9989H363.43L364.699 19.3334C364.897 18.7861 365.002 18.2099 365.008 17.6285C365.008 14.8325 362.332 13.3151 356.98 13.0765C353.91 13.0765 352.04 14.3551 351.354 16.9124C350.788 19.1629 353.155 21.5838 358.421 24.1752C368.256 28.983 373.368 31.5233 373.756 31.7961C379.474 35.3877 382.333 39.451 382.333 43.986C382.313 45.5632 382.023 47.1255 381.475 48.6062C379.188 57.3125 372.59 63.4103 361.68 66.8996C356.592 68.4792 351.313 69.3681 345.985 69.5422C332.983 69.5422 323.64 67.144 317.956 62.3476C315.982 60.7374 314.406 58.6978 313.35 56.3862C312.294 54.0746 311.787 51.5528 311.867 49.0154C311.868 47.6075 312.006 46.2029 312.279 44.8214H339.33L337.46 50.2258C337.267 50.7442 337.168 51.2927 337.168 51.8455C337.168 54.6983 339.844 56.2384 345.196 56.4657C346.925 56.4711 348.617 55.967 350.058 55.0172C351.499 54.0675 352.624 52.7146 353.292 51.1294C353.623 50.472 353.805 49.7503 353.824 49.0154C353.824 46.6967 350.977 44.344 345.247 41.9401C336.099 38.0644 330.81 35.6832 329.381 34.7967C323.663 31.3187 320.804 27.1588 320.804 22.3169C320.834 20.3492 321.2 18.4009 321.884 16.5544C323.703 9.66668 329.992 4.82482 340.753 2.02881C345.869 0.832638 351.093 0.15292 356.346 0C369.325 0 378.662 2.3982 384.357 7.1946C386.331 8.80219 387.906 10.8389 388.962 13.1475C390.018 15.4561 390.526 17.975 390.447 20.5097C390.42 21.3444 390.334 22.1762 390.189 22.9989Z" fill="#002237"/>
<path d="M455.132 32.0864C454.842 34.1739 454.394 36.2369 453.794 38.258C452.067 45.0776 449.008 55 444.617 68.0253H420.105L428.441 43.4238C428.927 42.0333 429.21 40.5808 429.282 39.1105C429.355 38.5933 429.304 38.0663 429.132 37.5726C428.961 37.0789 428.675 36.6325 428.297 36.27C427.919 35.9074 427.459 35.639 426.957 35.4867C426.454 35.3345 425.922 35.3026 425.405 35.3938C423.018 35.6521 420.782 36.6823 419.041 38.3262C417.262 39.5278 415.84 41.1824 414.924 43.117L406.348 68.0253H384.048L403.106 12.2756L389.023 3.03516H428.887L420.259 29.2733C422.663 27.5112 425.23 25.9812 427.927 24.7042C432.525 22.8672 437.449 21.9685 442.404 22.0616C450.889 22.0616 455.132 25.4032 455.132 32.0864Z" fill="#002237"/>
<path d="M517.828 33.5172C517.828 34.3469 514.306 45.8094 507.262 67.9047H486.678L487.089 63.4038C481.489 66.5334 475.159 68.1443 468.735 68.0752C458.626 68.0752 453.577 64.3187 453.589 56.8059C453.455 54.2971 454.141 51.8126 455.544 49.7231C456.948 47.6337 458.994 46.0515 461.376 45.2127C465.356 43.6101 471.697 42.8145 480.399 42.8258C483.422 42.8203 486.435 42.4946 489.388 41.8541L494.105 41.0187C495.077 40.7404 495.927 40.1453 496.519 39.329C497.11 38.5127 497.407 37.5226 497.364 36.5178C497.389 35.8147 497.235 35.1168 496.918 34.4881C496.6 33.8595 496.128 33.3204 495.546 32.9205C494.364 32.0407 492.923 31.5733 491.446 31.5907C490.182 31.6491 488.936 31.914 487.758 32.3749C486.539 32.8541 485.452 33.6165 484.59 34.5982C483.728 35.5799 483.114 36.7525 482.801 38.0181H463.143C463.912 36.2675 464.777 34.5601 465.733 32.9034C470.044 25.5383 479.284 21.8558 493.453 21.8558C498.049 21.7083 502.648 22.034 507.176 22.8276C514.266 24.4415 517.817 28.0047 517.828 33.5172ZM492.304 48.2303C481.486 48.0712 475.648 49.8727 474.79 53.6348C474.79 56.1069 477.055 57.3515 481.549 57.3515C484.837 57.3979 488.037 56.2935 490.589 54.2315C491.669 53.3961 492.304 51.3844 492.304 48.2303Z" fill="#002237"/>
<path d="M573.269 42.895H556.304C557.379 40.9469 558.039 38.7996 558.242 36.5869C558.242 34.8821 557.607 34.0637 556.355 33.9444C554.026 34.1868 551.843 35.1878 550.146 36.7915C548.32 38.0452 546.855 39.749 545.892 41.7357L536.766 68.025H514.947L528.172 30.5176L515.616 22.1125H552.341L551.021 27.875C556.618 23.9446 563.31 21.8468 570.164 21.8738C574.944 21.8738 577.34 24.147 577.351 28.6933C577.374 31.7848 576.013 36.5187 573.269 42.895Z" fill="#002237"/>
<path d="M645.209 22.0607L618.072 45.554L632.155 68.0244H608.141L597.694 51.1119L592.548 68.0244H570.815L589.769 11.7632L575.892 3.05127H614.093L601.794 38.8538L619.307 22.1289L645.209 22.0607Z" fill="#002237"/>
</svg>
